<?xml version="1.0" encoding="utf-8"?>
<!-- Generator: Adobe Illustrator 25.0.1, SVG Export Plug-In . SVG Version: 6.00 Build 0)  -->
<svg version="1.0" id="katman_1" xmlns="http://www.w3.org/2000/svg" xmlns:xlink="http://www.w3.org/1999/xlink" x="0px" y="0px"
	 viewBox="0 0 3541.3 2269.4" style="enable-background:new 0 0 3541.3 2269.4;" xml:space="preserve">
<style type="text/css">
	.st0{fill-rule:evenodd;clip-rule:evenodd;}
</style>
<path d="M1397.8,1402.8V840.5h-88.7l-149.7,75.2l34.1,75.2l95-47.5v459.4C1288.5,1402.8,1397.8,1402.8,1397.8,1402.8z
	 M1714.6,1412.3c132.3,0,204.3-61,204.3-160c0-77.6-44.4-118-97.4-144.1c37.2-26.1,76-69.7,76-132.3c0-84-67.3-144.9-183.7-144.9
	c-114,0-183,58.6-183,148.9c0,60.2,30.1,100.6,68.1,128.3c-46.7,27.7-88.7,74.4-88.7,146.5
	C1510.3,1349.8,1580.8,1412.3,1714.6,1412.3z M1741.6,1077.3c-59.4-19.8-110.9-38.8-110.9-95c0-45.9,34.1-70.5,84.7-70.5
	c49.9,0,83.2,23.8,83.2,69.7C1798.6,1027.4,1766.9,1058.3,1741.6,1077.3z M1713.8,1330.8c-53.1,0-93.5-26.1-93.5-81.6
	c0-47.5,29.3-78.4,60.2-98.2c63.4,23.8,128.3,37.2,128.3,99.8C1808.9,1299.9,1771.7,1330.8,1713.8,1330.8z M2233.4,1347.4V1208
	h136.2v-79.2h-136.2V989.4h-80.8v139.4h-136.2v79.2h136.2v139.4C2152.6,1347.4,2233.4,1347.4,2233.4,1347.4z"/>
<path class="st0" d="M1735.4,255c477.1,0,864,386.9,864,864s-386.9,864-864,864s-864-386.9-864-864S1258.3,255,1735.4,255z
	 M1735.4,399c-397.7,0-720,322.3-720,720s322.3,720,720,720s720-322.3,720-720S2133.1,399,1735.4,399z"/>
</svg>
